<svg xmlns="http://www.w3.org/2000/svg" viewBox="0 0 100 100" width="100" height="100">
  <defs>
    <linearGradient id="shieldGrad" x1="0%" y1="0%" x2="100%" y2="100%">
      <stop offset="0%" style="stop-color:#1e3a5f;stop-opacity:1" />
      <stop offset="100%" style="stop-color:#0d1b2a;stop-opacity:1" />
    </linearGradient>
    <linearGradient id="towerGrad" x1="0%" y1="0%" x2="0%" y2="100%">
      <stop offset="0%" style="stop-color:#3d5a80;stop-opacity:1" />
      <stop offset="100%" style="stop-color:#1e3a5f;stop-opacity:1" />
    </linearGradient>
    <linearGradient id="accentGrad" x1="0%" y1="0%" x2="100%" y2="0%">
      <stop offset="0%" style="stop-color:#4ecdc4;stop-opacity:1" />
      <stop offset="100%" style="stop-color:#44a08d;stop-opacity:1" />
    </linearGradient>
    <filter id="innerShadow" x="-20%" y="-20%" width="140%" height="140%">
      <feGaussianBlur in="SourceAlpha" stdDeviation="2" result="blur"/>
      <feOffset in="blur" dx="1" dy="2" result="offsetBlur"/>
      <feComposite in="SourceGraphic" in2="offsetBlur" operator="over"/>
    </filter>
  </defs>
  
  <!-- Main Shield Shape -->
  <path d="M50 5 L90 20 L90 45 Q90 75 50 95 Q10 75 10 45 L10 20 Z" 
        fill="url(#shieldGrad)" 
        stroke="#4ecdc4" 
        stroke-width="2"
        filter="url(#innerShadow)"/>
  
  <!-- Shield Inner Border -->
  <path d="M50 12 L82 24 L82 44 Q82 70 50 87 Q18 70 18 44 L18 24 Z" 
        fill="none" 
        stroke="#4ecdc4" 
        stroke-width="0.5"
        opacity="0.4"/>
  
  <!-- FA Monogram - Centered and contained within inner border -->
  <g id="faMonogram">
    <!-- Letter F -->
    <rect x="28" y="32" width="10" height="32" fill="url(#towerGrad)" rx="1"/>
    <rect x="38" y="32" width="14" height="8" fill="url(#towerGrad)" rx="1"/>
    <rect x="38" y="46" width="10" height="6" fill="url(#towerGrad)" rx="1"/>
    
    <!-- Arrow Slits on F -->
    <rect x="31" y="44" width="3" height="6" fill="#0d1b2a" rx="0.5"/>
    <rect x="31" y="54" width="3" height="6" fill="#0d1b2a" rx="0.5"/>
    
    <!-- Letter A - Upright -->
    <polygon points="56,64 62,64 62,32 56,32" fill="url(#towerGrad)"/>
    <polygon points="68,64 74,64 74,32 68,32" fill="url(#towerGrad)"/>
    <rect x="56" y="32" width="18" height="8" fill="url(#towerGrad)" rx="1"/>
    <rect x="62" y="48" width="6" height="6" fill="url(#towerGrad)" rx="0.5"/>
    
    <!-- Arrow Slits on A -->
    <rect x="57.5" y="44" width="3" height="6" fill="#0d1b2a" rx="0.5"/>
    <rect x="57.5" y="54" width="3" height="6" fill="#0d1b2a" rx="0.5"/>
    <rect x="69.5" y="44" width="3" height="6" fill="#0d1b2a" rx="0.5"/>
    <rect x="69.5" y="54" width="3" height="6" fill="#0d1b2a" rx="0.5"/>
  </g>
  
  <!-- Keyhole - Centered below FA -->
  <g id="keyhole" transform="translate(50, 74)">
    <circle cx="0" cy="-4" r="3" fill="#4ecdc4"/>
    <rect x="-1.5" y="-4" width="3" height="6" fill="#4ecdc4"/>
  </g>
</svg>